<svg xmlns="http://www.w3.org/2000/svg" viewBox="0 0 512 512" role="img" aria-labelledby="title">
  <title>LindaData Recycling Assistant</title>
  <defs>
    <linearGradient id="bg" x1="0%" x2="100%" y1="0%" y2="100%">
      <stop offset="0%" stop-color="#0f766e"/>
      <stop offset="100%" stop-color="#0b4f4a"/>
    </linearGradient>
    <linearGradient id="accent" x1="0%" x2="100%" y1="0%" y2="100%">
      <stop offset="0%" stop-color="#f59e0b"/>
      <stop offset="100%" stop-color="#ef6c57"/>
    </linearGradient>
  </defs>
  <rect width="512" height="512" rx="144" fill="url(#bg)"/>
  <circle cx="256" cy="256" r="118" fill="none" stroke="#ffffff" stroke-width="28"/>
  <path d="M327 132l66 18-48 50" fill="none" stroke="url(#accent)" stroke-linecap="round" stroke-linejoin="round" stroke-width="28"/>
  <path d="M176 368l-58-36 24-64" fill="none" stroke="#ffffff" stroke-linecap="round" stroke-linejoin="round" stroke-width="28"/>
  <path d="M171 170l22-72 68 14" fill="none" stroke="#ffffff" stroke-linecap="round" stroke-linejoin="round" stroke-width="28"/>
  <path d="M335 168c-18-28-49-46-84-46-55 0-100 45-100 100" fill="none" stroke="#ffffff" stroke-linecap="round" stroke-width="28"/>
  <path d="M178 346c19 28 49 44 82 44 55 0 100-45 100-100" fill="none" stroke="#ffffff" stroke-linecap="round" stroke-width="28"/>
  <circle cx="256" cy="256" r="26" fill="url(#accent)"/>
</svg>
